<svg width="109" height="65" viewBox="0 0 109 65" fill="none" xmlns="http://www.w3.org/2000/svg">
<path d="M72.4664 40.4107C70.2504 48.076 64.9283 54.7631 57.5028 59.2123C50.0772 63.6615 41.0607 65.5656 32.1516 64.5661C23.2426 63.5666 15.0561 59.7323 9.13413 53.7856C3.21217 47.8389 -0.0364132 40.1903 0.000307942 32.2805C0.0370291 24.3707 3.35652 16.7457 9.33349 10.8418C15.3105 4.93798 23.5323 1.16283 32.4503 0.227489C41.3683 -0.707851 50.3669 1.26119 57.7509 5.76369C65.1349 10.2662 70.3947 16.9914 72.5395 24.6724L57.5028 24.6724C55.9677 19.175 57.0802 16.5624 51.7953 13.3399C46.5105 10.1174 40.0702 8.70814 33.6875 9.37757C27.3048 10.047 21.4204 12.7489 17.1426 16.9743C12.8648 21.1998 10.4891 26.657 10.4628 32.3182C10.4365 37.9793 12.7615 43.4535 16.9999 47.7096C21.2383 51.9657 27.0975 54.7099 33.4737 55.4252C39.85 56.1406 46.3032 54.7778 51.6178 51.5935C56.9323 48.4092 56.1649 45.8969 57.7509 40.4107H72.4664Z" fill="#220957"/>
<path d="M28.8019 36.7236H26.9338V27.39H33.4687V29.2581H28.8019V31.1261H31.6006V32.9941H28.8019V36.7236ZM40.1727 36.7236H39.7431L39.0532 35.7668C38.884 35.9187 38.7039 36.0619 38.513 36.1964C38.3264 36.3266 38.129 36.4416 37.9207 36.5414C37.7124 36.6368 37.4976 36.7128 37.2763 36.7692C37.0594 36.8256 36.8381 36.8538 36.6124 36.8538C36.1221 36.8538 35.66 36.7714 35.226 36.6065C34.7965 36.4416 34.419 36.2029 34.0935 35.8905C33.7724 35.5737 33.5186 35.1876 33.332 34.7319C33.1454 34.2763 33.0521 33.7578 33.0521 33.1763C33.0521 32.6339 33.1454 32.1371 33.332 31.6858C33.5186 31.2302 33.7724 30.8397 34.0935 30.5142C34.419 30.1888 34.7965 29.9371 35.226 29.7592C35.66 29.577 36.1221 29.4859 36.6124 29.4859C36.8381 29.4859 37.0615 29.5141 37.2828 29.5705C37.5041 29.6269 37.7189 29.705 37.9272 29.8048C38.1355 29.9046 38.3329 30.0217 38.5195 30.1563C38.7104 30.2908 38.8883 30.4361 39.0532 30.5924L39.7431 29.7657H40.1727V36.7236ZM38.3828 33.1763C38.3828 32.9333 38.3351 32.699 38.2396 32.4734C38.1485 32.2434 38.0227 32.0416 37.8621 31.8681C37.7016 31.6902 37.5128 31.5491 37.2958 31.445C37.0832 31.3365 36.8554 31.2823 36.6124 31.2823C36.3694 31.2823 36.1394 31.3235 35.9225 31.406C35.7099 31.4884 35.5233 31.6099 35.3627 31.7704C35.2065 31.931 35.0828 32.1306 34.9917 32.3693C34.9006 32.6036 34.855 32.8726 34.855 33.1763C34.855 33.4801 34.9006 33.7513 34.9917 33.9899C35.0828 34.2243 35.2065 34.4217 35.3627 34.5822C35.5233 34.7428 35.7099 34.8643 35.9225 34.9467C36.1394 35.0292 36.3694 35.0704 36.6124 35.0704C36.8554 35.0704 37.0832 35.0183 37.2958 34.9142C37.5128 34.8057 37.7016 34.6647 37.8621 34.4911C38.0227 34.3132 38.1485 34.1114 38.2396 33.8858C38.3351 33.6558 38.3828 33.4193 38.3828 33.1763ZM46.6555 35.91C46.5123 36.0402 46.3582 36.1639 46.1934 36.281C46.0328 36.3939 45.8636 36.4937 45.6857 36.5804C45.5078 36.6629 45.3233 36.728 45.1324 36.7757C44.9458 36.8278 44.7549 36.8538 44.5596 36.8538C44.1301 36.8538 43.7265 36.7779 43.349 36.626C42.9715 36.4741 42.6396 36.2593 42.3532 35.9816C42.0711 35.6996 41.8477 35.359 41.6828 34.9598C41.5222 34.5562 41.4419 34.1049 41.4419 33.6059V29.7527H43.2123V33.6059C43.2123 33.8402 43.247 34.0507 43.3165 34.2373C43.3902 34.4195 43.4879 34.5736 43.6094 34.6994C43.7309 34.8252 43.8719 34.9207 44.0324 34.9858C44.1973 35.0509 44.3731 35.0834 44.5596 35.0834C44.7419 35.0834 44.9133 35.0422 45.0738 34.9598C45.2387 34.873 45.3819 34.7601 45.5034 34.6213C45.6249 34.4824 45.7204 34.3262 45.7898 34.1527C45.8592 33.9748 45.8939 33.7925 45.8939 33.6059V29.7527H47.6708V36.7236H47.2413L46.6555 35.91ZM50.8081 36.7236H49.0312V29.7527H49.4608L50.0466 30.4296C50.3329 30.1693 50.6562 29.9697 51.0164 29.8308C51.3809 29.6876 51.7605 29.616 52.1554 29.616C52.5806 29.616 52.982 29.6985 53.3595 29.8634C53.737 30.0239 54.0668 30.2474 54.3489 30.5338C54.6309 30.8158 54.8522 31.1478 55.0128 31.5296C55.1777 31.9071 55.2601 32.3107 55.2601 32.7403V36.7236H53.4832V32.7403C53.4832 32.558 53.4485 32.3866 53.3791 32.2261C53.3096 32.0612 53.2142 31.918 53.0927 31.7965C52.9712 31.675 52.8301 31.5795 52.6696 31.5101C52.509 31.4407 52.3376 31.406 52.1554 31.406C51.9688 31.406 51.7931 31.4407 51.6282 31.5101C51.4633 31.5795 51.3201 31.675 51.1986 31.7965C51.0771 31.918 50.9817 32.0612 50.9122 32.2261C50.8428 32.3866 50.8081 32.558 50.8081 32.7403V36.7236ZM63.2789 36.7236H62.8493L62.1594 35.7668C61.9902 35.9187 61.8101 36.0619 61.6192 36.1964C61.4326 36.3266 61.2352 36.4416 61.0269 36.5414C60.8186 36.6368 60.6038 36.7128 60.3825 36.7692C60.1656 36.8256 59.9443 36.8538 59.7186 36.8538C59.2283 36.8538 58.7662 36.7714 58.3322 36.6065C57.9027 36.4416 57.5252 36.2029 57.1997 35.8905C56.8786 35.5737 56.6248 35.1876 56.4382 34.7319C56.2516 34.2763 56.1583 33.7578 56.1583 33.1763C56.1583 32.6339 56.2516 32.1371 56.4382 31.6858C56.6248 31.2302 56.8786 30.8397 57.1997 30.5142C57.5252 30.1888 57.9027 29.9371 58.3322 29.7592C58.7662 29.577 59.2283 29.4859 59.7186 29.4859C59.9443 29.4859 60.1677 29.5141 60.389 29.5705C60.6103 29.6269 60.8251 29.705 61.0334 29.8048C61.2417 29.9046 61.4391 30.0217 61.6257 30.1563C61.8166 30.2908 61.9945 30.4361 62.1594 30.5924L62.8493 29.7657H63.2789V36.7236ZM61.489 33.1763C61.489 32.9333 61.4413 32.699 61.3458 32.4734C61.2547 32.2434 61.1289 32.0416 60.9683 31.8681C60.8078 31.6902 60.619 31.5491 60.402 31.445C60.1894 31.3365 59.9616 31.2823 59.7186 31.2823C59.4756 31.2823 59.2456 31.3235 59.0287 31.406C58.8161 31.4884 58.6295 31.6099 58.4689 31.7704C58.3127 31.931 58.189 32.1306 58.0979 32.3693C58.0068 32.6036 57.9612 32.8726 57.9612 33.1763C57.9612 33.4801 58.0068 33.7513 58.0979 33.9899C58.189 34.2243 58.3127 34.4217 58.4689 34.5822C58.6295 34.7428 58.8161 34.8643 59.0287 34.9467C59.2456 35.0292 59.4756 35.0704 59.7186 35.0704C59.9616 35.0704 60.1894 35.0183 60.402 34.9142C60.619 34.8057 60.8078 34.6647 60.9683 34.4911C61.1289 34.3132 61.2547 34.1114 61.3458 33.8858C61.4413 33.6558 61.489 33.4193 61.489 33.1763ZM72.2936 36.7236H70.2954L66.696 30.5793V36.7236H64.828V27.39H66.8262L70.4256 33.5408V27.39H72.2936V36.7236ZM80.4751 33.1763C80.4751 33.697 80.3819 34.183 80.1953 34.6343C80.0087 35.0812 79.7548 35.4696 79.4337 35.7994C79.1126 36.1248 78.7351 36.383 78.3012 36.5739C77.8716 36.7605 77.4095 36.8538 76.9148 36.8538C76.4245 36.8538 75.9624 36.7605 75.5285 36.5739C75.0989 36.383 74.7214 36.1248 74.3959 35.7994C74.0748 35.4696 73.821 35.0812 73.6344 34.6343C73.4478 34.183 73.3545 33.697 73.3545 33.1763C73.3545 32.647 73.4478 32.1566 73.6344 31.7054C73.821 31.2541 74.0748 30.8657 74.3959 30.5403C74.7214 30.2105 75.0989 29.9523 75.5285 29.7657C75.9624 29.5792 76.4245 29.4859 76.9148 29.4859C77.4095 29.4859 77.8716 29.5748 78.3012 29.7527C78.7351 29.9263 79.1126 30.1758 79.4337 30.5012C79.7548 30.8223 80.0087 31.2107 80.1953 31.6663C80.3819 32.1176 80.4751 32.6209 80.4751 33.1763ZM78.6852 33.1763C78.6852 32.89 78.6375 32.6318 78.542 32.4018C78.4509 32.1675 78.3251 31.9679 78.1645 31.803C78.004 31.6338 77.8152 31.5058 77.5983 31.419C77.3856 31.3278 77.1578 31.2823 76.9148 31.2823C76.6718 31.2823 76.4419 31.3278 76.2249 31.419C76.0123 31.5058 75.8257 31.6338 75.6651 31.803C75.5089 31.9679 75.3853 32.1675 75.2941 32.4018C75.203 32.6318 75.1575 32.89 75.1575 33.1763C75.1575 33.4454 75.203 33.6949 75.2941 33.9249C75.3853 34.1548 75.5089 34.3544 75.6651 34.5237C75.8257 34.6929 76.0123 34.8274 76.2249 34.9272C76.4419 35.0227 76.6718 35.0704 76.9148 35.0704C77.1578 35.0704 77.3856 35.0248 77.5983 34.9337C77.8152 34.8426 78.004 34.7146 78.1645 34.5497C78.3251 34.3848 78.4509 34.1852 78.542 33.9509C78.6375 33.7166 78.6852 33.4584 78.6852 33.1763ZM84.9011 36.7236C84.4715 36.7236 84.068 36.6434 83.6905 36.4828C83.313 36.3179 82.981 36.0944 82.6946 35.8124C82.4126 35.526 82.1891 35.1941 82.0242 34.8166C81.8637 34.439 81.7834 34.0355 81.7834 33.6059V31.5361H80.9177V29.7657H81.7834V26.98H83.5538V29.7657H86.2484V31.5361H83.5538V33.6059C83.5538 33.7925 83.5885 33.9682 83.6579 34.1331C83.7274 34.2937 83.8228 34.4347 83.9443 34.5562C84.0658 34.6777 84.209 34.7753 84.3739 34.8491C84.5388 34.9185 84.7145 34.9532 84.9011 34.9532H86.2484V36.7236H84.9011ZM90.0235 35.0183C90.093 35.04 90.1624 35.0552 90.2318 35.0639C90.3012 35.0682 90.3707 35.0704 90.4401 35.0704C90.6137 35.0704 90.7807 35.0465 90.9413 34.9988C91.1018 34.9511 91.2515 34.8838 91.3904 34.797C91.5336 34.7059 91.6594 34.5974 91.7679 34.4716C91.8807 34.3414 91.9718 34.1982 92.0413 34.042L93.343 35.3503C93.1781 35.5846 92.9872 35.795 92.7702 35.9816C92.5576 36.1682 92.3255 36.3266 92.0738 36.4568C91.8265 36.5869 91.564 36.6846 91.2862 36.7497C91.0129 36.8191 90.7308 36.8538 90.4401 36.8538C89.9498 36.8538 89.4876 36.7627 89.0537 36.5804C88.6241 36.3982 88.2466 36.1444 87.9212 35.8189C87.6001 35.4935 87.3463 35.1073 87.1597 34.6603C86.9731 34.2091 86.8798 33.7144 86.8798 33.1763C86.8798 32.6253 86.9731 32.1219 87.1597 31.6663C87.3463 31.2107 87.6001 30.8223 87.9212 30.5012C88.2466 30.1801 88.6241 29.9306 89.0537 29.7527C89.4876 29.5748 89.9498 29.4859 90.4401 29.4859C90.7308 29.4859 91.015 29.5206 91.2928 29.59C91.5705 29.6594 91.833 29.7592 92.0803 29.8894C92.332 30.0196 92.5663 30.1801 92.7833 30.3711C93.0002 30.5576 93.1911 30.7681 93.356 31.0024L90.0235 35.0183ZM90.9348 31.3539C90.8523 31.3235 90.7699 31.304 90.6874 31.2953C90.6093 31.2866 90.5269 31.2823 90.4401 31.2823C90.1971 31.2823 89.9671 31.3278 89.7502 31.419C89.5375 31.5058 89.351 31.6316 89.1904 31.7965C89.0342 31.9614 88.9105 32.161 88.8194 32.3953C88.7283 32.6253 88.6827 32.8856 88.6827 33.1763C88.6827 33.2414 88.6849 33.3152 88.6892 33.3976C88.6979 33.4801 88.7088 33.5647 88.7218 33.6515C88.7391 33.7339 88.7587 33.8142 88.7804 33.8923C88.8021 33.9704 88.8303 34.0398 88.865 34.1006L90.9348 31.3539ZM98.0814 36.7236H94.0199V34.9532H98.0814C98.2029 34.9532 98.3071 34.9099 98.3938 34.8231C98.4806 34.7363 98.524 34.6321 98.524 34.5106C98.524 34.3848 98.4806 34.3024 98.3938 34.2633C98.3071 34.2243 98.2029 34.2047 98.0814 34.2047H96.2329C95.9248 34.2047 95.6363 34.1462 95.3673 34.029C95.0982 33.9118 94.8639 33.7535 94.6643 33.5539C94.4647 33.3499 94.3063 33.1134 94.1892 32.8444C94.0763 32.5754 94.0199 32.2868 94.0199 31.9787C94.0199 31.6706 94.0763 31.3821 94.1892 31.1131C94.3063 30.844 94.4647 30.6097 94.6643 30.4101C94.8639 30.2105 95.0982 30.0543 95.3673 29.9415C95.6363 29.8243 95.9248 29.7657 96.2329 29.7657H99.8323V31.5361H96.2329C96.1114 31.5361 96.0073 31.5795 95.9205 31.6663C95.8337 31.7531 95.7903 31.8572 95.7903 31.9787C95.7903 32.1046 95.8337 32.213 95.9205 32.3042C96.0073 32.3909 96.1114 32.4343 96.2329 32.4343H98.0814C98.3852 32.4343 98.6716 32.4864 98.9406 32.5906C99.2096 32.6904 99.4439 32.8314 99.6435 33.0136C99.8431 33.1959 100.002 33.415 100.119 33.671C100.236 33.927 100.294 34.2069 100.294 34.5106C100.294 34.8187 100.236 35.1073 100.119 35.3763C100.002 35.641 99.8431 35.8753 99.6435 36.0793C99.4439 36.2789 99.2096 36.4372 98.9406 36.5544C98.6716 36.6672 98.3852 36.7236 98.0814 36.7236Z" fill="#03294D"/>
</svg>
